<mxfile host="app.diagrams.net" modified="2025-07-07T00:09:46.788Z" agent="Mozilla/5.0 (Windows NT 10.0; Win64; x64) AppleWebKit/537.36 (KHTML, like Gecko) Chrome/134.0.0.0 Safari/537.36 OPR/119.0.0.0 (Edition std-1)" etag="zdUriutSQMMng5rYaeAc" version="24.4.13" type="google">
  <diagram name="PÃ¡gina-1" id="kHsYOWjLlJkr-nO_1VZU">
    <mxGraphModel dx="1466" dy="839" grid="1" gridSize="10" guides="1" tooltips="1" connect="0" arrows="1" fold="1" page="1" pageScale="1" pageWidth="1169" pageHeight="827" background="none" math="0" shadow="0">
      <root>
        <mxCell id="0" />
        <mxCell id="1" parent="0" />
        <mxCell id="p9U3UpTSa45xv1KacTr0-11" value="" style="group" vertex="1" connectable="0" parent="1">
          <mxGeometry x="560" y="450" width="75" height="90" as="geometry" />
        </mxCell>
        <mxCell id="p9U3UpTSa45xv1KacTr0-5" value="" style="verticalAlign=top;verticalLabelPosition=bottom;labelPosition=center;align=center;html=1;outlineConnect=0;fillColor=#1ba1e2;strokeColor=#006EAF;gradientDirection=north;strokeWidth=2;shape=mxgraph.networks.storage;rounded=1;textShadow=0;horizontal=1;shadow=0;" vertex="1" parent="p9U3UpTSa45xv1KacTr0-11">
          <mxGeometry x="2.5" width="70" height="70" as="geometry" />
        </mxCell>
        <mxCell id="p9U3UpTSa45xv1KacTr0-7" value="PostgreSQL" style="whiteSpace=wrap;html=1;fillColor=none;strokeColor=none;" vertex="1" parent="p9U3UpTSa45xv1KacTr0-11">
          <mxGeometry y="70" width="75" height="20" as="geometry" />
        </mxCell>
        <mxCell id="p9U3UpTSa45xv1KacTr0-12" value="" style="group" vertex="1" connectable="0" parent="1">
          <mxGeometry x="70" y="280" width="75" height="90" as="geometry" />
        </mxCell>
        <mxCell id="p9U3UpTSa45xv1KacTr0-4" value="" style="fontColor=#ffffff;verticalAlign=top;verticalLabelPosition=bottom;labelPosition=center;align=center;html=1;outlineConnect=0;fillColor=#76608a;strokeColor=#432D57;gradientDirection=north;strokeWidth=2;shape=mxgraph.networks.server_storage;rounded=1;shadow=0;" vertex="1" parent="p9U3UpTSa45xv1KacTr0-12">
          <mxGeometry x="2.5" width="70" height="70" as="geometry" />
        </mxCell>
        <mxCell id="p9U3UpTSa45xv1KacTr0-8" value="CoinCap API" style="whiteSpace=wrap;html=1;fillColor=none;strokeColor=none;" vertex="1" parent="p9U3UpTSa45xv1KacTr0-12">
          <mxGeometry y="70" width="75" height="20" as="geometry" />
        </mxCell>
        <mxCell id="p9U3UpTSa45xv1KacTr0-18" value="" style="group" vertex="1" connectable="0" parent="1">
          <mxGeometry x="550" y="120" width="90" height="100" as="geometry" />
        </mxCell>
        <mxCell id="p9U3UpTSa45xv1KacTr0-16" value="" style="shape=image;verticalLabelPosition=bottom;labelBackgroundColor=default;verticalAlign=top;aspect=fixed;imageAspect=0;image=https://img.icons8.com/color/512/microsoft-excel-2019.png;" vertex="1" parent="p9U3UpTSa45xv1KacTr0-18">
          <mxGeometry width="85" height="85" as="geometry" />
        </mxCell>
        <mxCell id="p9U3UpTSa45xv1KacTr0-17" value="CSV" style="whiteSpace=wrap;html=1;fillColor=none;strokeColor=none;" vertex="1" parent="p9U3UpTSa45xv1KacTr0-18">
          <mxGeometry y="80" width="90" height="20" as="geometry" />
        </mxCell>
        <mxCell id="p9U3UpTSa45xv1KacTr0-20" value="" style="group" vertex="1" connectable="0" parent="1">
          <mxGeometry x="700" y="280" width="90" height="90" as="geometry" />
        </mxCell>
        <mxCell id="p9U3UpTSa45xv1KacTr0-10" value="" style="sketch=0;pointerEvents=1;shadow=0;dashed=0;html=1;strokeColor=#d79b00;fillColor=#ffcd28;aspect=fixed;labelPosition=center;verticalLabelPosition=bottom;verticalAlign=top;align=center;outlineConnect=0;shape=mxgraph.vvd.nsx_dashboard;gradientColor=#ffa500;" vertex="1" parent="p9U3UpTSa45xv1KacTr0-20">
          <mxGeometry x="9.25" width="71.51" height="66.5" as="geometry" />
        </mxCell>
        <mxCell id="p9U3UpTSa45xv1KacTr0-19" value="Power BI" style="whiteSpace=wrap;html=1;fillColor=none;strokeColor=none;" vertex="1" parent="p9U3UpTSa45xv1KacTr0-20">
          <mxGeometry y="70" width="90" height="20" as="geometry" />
        </mxCell>
        <mxCell id="p9U3UpTSa45xv1KacTr0-25" style="edgeStyle=orthogonalEdgeStyle;rounded=0;orthogonalLoop=1;jettySize=auto;html=1;entryX=0.525;entryY=1.25;entryDx=0;entryDy=0;entryPerimeter=0;" edge="1" parent="1" source="p9U3UpTSa45xv1KacTr0-5" target="p9U3UpTSa45xv1KacTr0-19">
          <mxGeometry relative="1" as="geometry" />
        </mxCell>
        <mxCell id="p9U3UpTSa45xv1KacTr0-26" style="edgeStyle=orthogonalEdgeStyle;rounded=0;orthogonalLoop=1;jettySize=auto;html=1;entryX=0.517;entryY=-0.06;entryDx=0;entryDy=0;entryPerimeter=0;" edge="1" parent="1" source="p9U3UpTSa45xv1KacTr0-16" target="p9U3UpTSa45xv1KacTr0-10">
          <mxGeometry relative="1" as="geometry" />
        </mxCell>
        <mxCell id="p9U3UpTSa45xv1KacTr0-30" value="" style="group" vertex="1" connectable="0" parent="1">
          <mxGeometry x="290" y="275" width="90" height="100" as="geometry" />
        </mxCell>
        <mxCell id="p9U3UpTSa45xv1KacTr0-28" value="" style="shape=image;verticalLabelPosition=bottom;labelBackgroundColor=default;verticalAlign=top;aspect=fixed;imageAspect=0;image=https://images.icon-icons.com/2699/PNG/512/python_logo_icon_168886.png;" vertex="1" parent="p9U3UpTSa45xv1KacTr0-30">
          <mxGeometry width="85" height="85" as="geometry" />
        </mxCell>
        <mxCell id="p9U3UpTSa45xv1KacTr0-29" value="Python ETL" style="whiteSpace=wrap;html=1;fillColor=none;strokeColor=none;" vertex="1" parent="p9U3UpTSa45xv1KacTr0-30">
          <mxGeometry y="80" width="90" height="20" as="geometry" />
        </mxCell>
        <mxCell id="p9U3UpTSa45xv1KacTr0-31" style="edgeStyle=orthogonalEdgeStyle;rounded=0;orthogonalLoop=1;jettySize=auto;html=1;" edge="1" parent="1" source="p9U3UpTSa45xv1KacTr0-4">
          <mxGeometry relative="1" as="geometry">
            <mxPoint x="280" y="315" as="targetPoint" />
          </mxGeometry>
        </mxCell>
        <mxCell id="p9U3UpTSa45xv1KacTr0-32" style="edgeStyle=orthogonalEdgeStyle;rounded=0;orthogonalLoop=1;jettySize=auto;html=1;" edge="1" parent="1" target="p9U3UpTSa45xv1KacTr0-16">
          <mxGeometry relative="1" as="geometry">
            <mxPoint x="380" y="319" as="sourcePoint" />
            <Array as="points">
              <mxPoint x="380" y="320" />
              <mxPoint x="440" y="320" />
              <mxPoint x="440" y="162" />
            </Array>
          </mxGeometry>
        </mxCell>
        <mxCell id="p9U3UpTSa45xv1KacTr0-33" style="edgeStyle=orthogonalEdgeStyle;rounded=0;orthogonalLoop=1;jettySize=auto;html=1;exitX=1.059;exitY=0.518;exitDx=0;exitDy=0;exitPerimeter=0;" edge="1" parent="1" source="p9U3UpTSa45xv1KacTr0-28" target="p9U3UpTSa45xv1KacTr0-5">
          <mxGeometry relative="1" as="geometry">
            <mxPoint x="333" y="360" as="sourcePoint" />
            <Array as="points">
              <mxPoint x="440" y="320" />
              <mxPoint x="440" y="485" />
            </Array>
          </mxGeometry>
        </mxCell>
      </root>
    </mxGraphModel>
  </diagram>
</mxfile>
